<svg xmlns="http://www.w3.org/2000/svg" width="341" height="77" viewBox="0 0 341 77" preserveAspectRatio="xMidYMid">
<defs>
    <style type="text/css">
      .cls-1, .cls-3 {
        fill: #002c53;
      }
      .cls-1, .cls-2 {
        fill-rule: evenodd;
      }
      .cls-2 {
        fill: #0072bb;
      }
      .cls-3 {
        font-size: 15px;
        text-anchor: end;
        font-family: Montserrat;
        font-weight: 700;
        text-transform: uppercase;
      }
    </style>
  </defs>
  <path id="press" class="cls-1" d="M411.668,122.666v1.493H394.5v-1.493c5.025,0,5.925-1.268,5.925-8.731V102c0-7.463-.9-8.657-5.925-8.657V91.845h15.523c7.723,0,12,3.955,12,9.255,0,5.149-4.276,9.178-12,9.178h-4.275v3.656C405.743,121.4,406.643,122.666,411.668,122.666Zm-1.65-28.134h-4.275v12.985h4.275c4.2,0,6.149-2.91,6.149-6.417C416.167,97.518,414.218,94.532,410.018,94.532Zm63.515,22.613-0.375,1.342c-0.674,2.463-1.5,3.359-6.824,3.359h-1.05c-3.9,0-4.574-.9-4.574-6.194V112.22c5.849,0,6.3.521,6.3,4.4h1.424V105.5H467.01c0,3.88-.451,4.4-6.3,4.4v-8.357h4.123c5.326,0,6.15.895,6.825,3.358l0.376,1.417h1.2l-0.524-7.014H450.661v1.417c4.2,0,4.875.895,4.875,6.194v9.553c0,4.847-.574,6.068-3.885,6.242-3.146-.478-5.307-2.186-8.263-5.422l-3.449-3.73c4.649-.822,7.124-3.732,7.124-7.016,0-4.1-3.524-7.238-10.123-7.238h-13.2v1.417c4.2,0,4.873.895,4.873,6.194v9.553c0,5.3-.674,6.268-4.873,6.268v1.418h14.923v-1.418c-4.2,0-4.875-.97-4.875-6.268v-2.686h1.275l8.324,10.372h30.82l0.45-7.014h-1.126Zm-39.743-5.673v-9.924h3.074c3.375,0,4.875,2.313,4.875,5,0,2.612-1.5,4.924-4.875,4.924H433.79Zm54.966,13.657a11.112,11.112,0,0,1-6.749-2.538,5.345,5.345,0,0,0-1.2,2.538h-1.425v-10.3h1.5c0.6,4.925,4.049,7.835,8.474,7.835,2.4,0,4.349-1.343,4.349-3.581,0-1.94-1.724-3.433-4.8-4.851l-4.274-2.014c-3-1.419-5.25-3.882-5.25-7.165,0-3.582,3.375-6.641,8.024-6.641a9.422,9.422,0,0,1,5.85,1.94,4.222,4.222,0,0,0,.975-2.016h1.424v8.807h-1.574c-0.526-3.508-2.475-6.418-6.449-6.418-2.1,0-4.05,1.194-4.05,3.06,0,1.94,1.574,2.984,5.175,4.626l4.123,2.015c3.6,1.716,5.024,4.479,5.024,6.717C497.9,121.846,493.78,125.129,488.756,125.129Zm23.1,0a11.112,11.112,0,0,1-6.749-2.538,5.355,5.355,0,0,0-1.2,2.538h-1.425v-10.3h1.5c0.6,4.925,4.049,7.835,8.474,7.835,2.4,0,4.35-1.343,4.35-3.581,0-1.94-1.725-3.433-4.8-4.851l-4.274-2.014c-3-1.419-5.25-3.882-5.25-7.165,0-3.582,3.375-6.641,8.024-6.641a9.422,9.422,0,0,1,5.85,1.94,4.2,4.2,0,0,0,.973-2.016h1.426v8.807h-1.575c-0.525-3.508-2.474-6.418-6.448-6.418-2.1,0-4.051,1.194-4.051,3.06,0,1.94,1.575,2.984,5.175,4.626l4.124,2.015c3.6,1.716,5.024,4.479,5.024,6.717C521,121.846,516.876,125.129,511.852,125.129Z" transform="translate(-180 -69)"/>
  <path id="word" class="cls-2" d="M377.774,99.309H364.35v1.417c4.2,0,4.874.895,4.874,6.194v9.553c0,5.3-.674,6.268-4.874,6.268-3.223-.447-5.4-2.164-8.4-5.448l-3.45-3.73c4.649-.822,7.124-3.732,7.124-7.016,0-4.1-3.524-7.238-10.124-7.238H336.3v1.417c4.2,0,4.874.895,4.874,6.194v9.553c0,5.3-.675,6.268-4.874,6.268v1.418h14.923v-1.418c-4.2,0-4.874-.97-4.874-6.268v-2.686h1.274l8.325,10.372h21.822c10.723,0,15.372-5.671,15.372-12.463S388.5,99.309,377.774,99.309Zm-31.42,12.163v-9.924h3.074c3.374,0,4.874,2.313,4.874,5,0,2.612-1.5,4.924-4.874,4.924h-3.074ZM378,121.846h-0.525c-2.7,0-3.074-.671-3.074-4.1V101.548H378c7.8,0,9.223,5.671,9.223,10.074C387.222,116.174,385.8,121.846,378,121.846Zm-83.462-7.612,5.174-15.224c1.5-4.4.826-5.671-3.974-5.671V91.846h14.1v1.493c-4.724,0-5.849,1.119-7.724,6.567l-8.549,25.522h-0.975l-7.649-23.359-7.8,23.359h-0.975l-8.324-25.522c-1.8-5.448-3-6.567-7.349-6.567V91.846H277.14v1.493c-4.425,0-5.626,1.044-4.05,5.671l5.024,15.224,7.574-22.388h1.425Zm25.5,10.9c-8.248,0-15-6.045-15-13.433,0-7.313,6.749-13.359,15-13.359s15,6.046,15,13.359C335.03,119.084,328.281,125.129,320.032,125.129Zm0-24.477c-6.9,0-9.3,6.193-9.3,11.044,0,4.926,2.4,11.045,9.3,11.045,6.975,0,9.375-6.119,9.375-11.045C329.407,106.845,327.007,100.652,320.032,100.652Z" transform="translate(-180 -69)"/>
  <path id="W" class="cls-1" d="M185.5,107.5a33.02,33.02,0,0,0,18.7,29.723L188.372,94.059A32.77,32.77,0,0,0,185.5,107.5Zm55.591-1.667a17.334,17.334,0,0,0-2.737-9.108c-1.683-2.72-3.259-5.024-3.259-7.745a5.73,5.73,0,0,1,5.572-5.862c0.148,0,.287.018,0.43,0.026a33.282,33.282,0,0,0-50.139,6.216c0.779,0.023,1.513.04,2.136,0.04,3.471,0,8.845-.419,8.845-0.419a1.364,1.364,0,0,1,.212,2.72s-1.8.21-3.8,0.315l12.085,35.773,7.263-21.676-5.171-14.1c-1.787-.1-3.48-0.315-3.48-0.315a1.364,1.364,0,0,1,.21-2.72S214.74,89.4,218,89.4c3.47,0,8.844-.419,8.844-0.419a1.364,1.364,0,0,1,.213,2.72s-1.8.21-3.8,0.315l11.993,35.5,3.31-11.007C240,111.941,241.09,108.66,241.09,105.832Zm-21.822,4.556-9.957,28.793a33.349,33.349,0,0,0,20.395-.526,3,3,0,0,1-.236-0.455Zm28.538-18.734a25.176,25.176,0,0,1,.223,3.4,31.007,31.007,0,0,1-2.523,11.829l-10.137,29.167A32.934,32.934,0,0,0,247.806,91.654ZM218.686,69a38.5,38.5,0,1,0,38.688,38.5A38.636,38.636,0,0,0,218.686,69Zm0,75.231A36.733,36.733,0,1,1,255.6,107.5,36.865,36.865,0,0,1,218.686,144.233Z" transform="translate(-180 -69)"/>
  <text class="cls-3" x="341" y="68.993">CHILD THEME 2022</text>
</svg>
