<svg height="512" viewBox="0 0 28 28" width="512" xmlns="http://www.w3.org/2000/svg" fill="#10d0a1"><g id="Layer_2" data-name="Layer 2"><path d="m23.2 19.625a26.568 26.568 0 0 1 -2.975-1.4 1.265 1.265 0 0 0 -1.533.232l-1.574 1.661a1.388 1.388 0 0 1 -1.665.266 19.368 19.368 0 0 1 -7.835-7.835 1.389 1.389 0 0 1 .266-1.666l1.661-1.576a1.262 1.262 0 0 0 .233-1.53 26.29 26.29 0 0 1 -1.403-2.977 2.028 2.028 0 0 0 -1.886-1.3 4.963 4.963 0 0 0 -4.742 6.428 24.71 24.71 0 0 0 16.324 16.325l.3.094a4.77 4.77 0 0 0 1.41.215 4.737 4.737 0 0 0 4.719-4.733v-.319a2.028 2.028 0 0 0 -1.3-1.885zm.3 2.2a3.73 3.73 0 0 1 -4.83 3.563l-.3-.094a23.714 23.714 0 0 1 -15.67-15.661 3.964 3.964 0 0 1 3.79-5.133 1.032 1.032 0 0 1 .955.668 27.018 27.018 0 0 0 1.455 3.091.263.263 0 0 1 -.046.322l-1.654 1.575a2.39 2.39 0 0 0 -.457 2.867 20.346 20.346 0 0 0 8.238 8.238 2.39 2.39 0 0 0 2.868-.457l1.574-1.661a.262.262 0 0 1 .322-.044 27.747 27.747 0 0 0 3.09 1.456 1.033 1.033 0 0 1 .669.955z"/><path d="m18.218 10.71a.5.5 0 0 0 .707 0l3.715-3.71a.5.5 0 1 0 -.707-.707l-3.362 3.357-1.5-1.5a.5.5 0 0 0 -.707.708z"/><path d="m19.5 15.5a7 7 0 1 0 -7-7 7.008 7.008 0 0 0 7 7zm0-13a6 6 0 1 1 -6 6 6.006 6.006 0 0 1 6-6z"/></g></svg>