<svg height="512" viewBox="0 0 28 28" width="512" xmlns="http://www.w3.org/2000/svg" fill="#10d0a1"><g id="Layer_2" data-name="Layer 2"><path d="m19.646 10.146-1.646 1.647-.646-.647a.5.5 0 0 0 -.708.708l1 1a.5.5 0 0 0 .708 0l2-2a.5.5 0 0 0 -.708-.708z"/><path d="m22 19.5h-7a.5.5 0 0 0 0 1h7a.5.5 0 0 0 0-1z"/><path d="m22 17.5h-7a.5.5 0 0 0 0 1h7a.5.5 0 0 0 0-1z"/><path d="m22 21.5h-4a.5.5 0 0 0 0 1h4a.5.5 0 0 0 0-1z"/><path d="m25.354 5.646-4-4a.5.5 0 0 0 -.354-.146h-13a.5.5 0 0 0 -.5.5v8.591a2.606 2.606 0 0 0 -1.529.825 2.7 2.7 0 0 0 -.657 2.126l.87 6.958h-2.243a1.442 1.442 0 0 0 -1.441 1.441v1.559a.5.5 0 0 0 .5.5h.75v2a.5.5 0 0 0 .5.5h20.75a.5.5 0 0 0 .5-.5v-20a.5.5 0 0 0 -.146-.354zm-3.854-2.439 2.293 2.293h-2.293zm-15.194 10.211a1.71 1.71 0 0 1 .414-1.341 1.765 1.765 0 0 1 2.56 0 1.71 1.71 0 0 1 .414 1.341l-.885 7.082h-1.618zm-2.806 8.523a.442.442 0 0 1 .441-.441h8.118a.442.442 0 0 1 .441.441v1.059h-9zm7.5 3.559h-6.25v-1.5h6.5v1.5zm1.25 0v-1.5h.75a.5.5 0 0 0 .5-.5v-1.559a1.442 1.442 0 0 0 -1.441-1.441h-2.243l.87-6.958a2.7 2.7 0 0 0 -.657-2.126 2.606 2.606 0 0 0 -1.529-.825v-8.091h12v3.5a.5.5 0 0 0 .5.5h3.5v19z"/><path d="m18.5 7.5a4 4 0 1 0 4 4 4 4 0 0 0 -4-4zm0 7a3 3 0 1 1 3-3 3 3 0 0 1 -3 3z"/></g></svg>