<svg version="1.1" id="svg8" xmlns:svg="http://www.w3.org/2000/svg"
	 xmlns="http://www.w3.org/2000/svg" xmlns:xlink="http://www.w3.org/1999/xlink" x="0px" y="0px" viewBox="0 0 512 512"
	 style="enable-background:new 0 0 512 512;" xml:space="preserve" width="72" height="72">
<style type="text/css">
	.st0{fill:#002C53;}
	.st1{fill:#0072BB;fill-opacity:0.994;}
</style>
<g id="layer2" transform="translate(-564 -62)">
	<g id="g4484" transform="translate(378)">
		<path id="path3401" class="st0" d="M255.8,62c-25.6,0-46.5,21-46.5,46.5v418.9c0,25.6,21,46.5,46.5,46.5h256
			c25.6,0,46.5-21,46.5-46.5v-69.8c0-6.4-5.2-11.6-11.6-11.6c-6.4,0-11.6,5.2-11.6,11.6v69.8c0,13.1-10.2,23.3-23.3,23.3h-256
			c-13.1,0-23.3-10.2-23.3-23.3V108.5c0-13.1,10.2-23.3,23.3-23.3h63.6l13.4,30.5c4.6,10.5,15.1,16.1,25.6,16.1h50.7
			c10.5,0,21-5.6,25.6-16.1l13.4-30.5h63.6c13.1,0,23.3,10.2,23.3,23.3v69.8c0,6.4,5.2,11.6,11.6,11.6c6.4,0,11.6-5.2,11.6-11.6
			v-69.8c0-25.6-21-46.5-46.5-46.5H255.8z M344.9,85.3h77.9l-9.3,21c-0.5,1-2.2,2.2-4.3,2.2h-50.7c-2.1,0-3.8-1.2-4.3-2.2
			L344.9,85.3z"/>
		<path id="path3403" class="st0" d="M331.5,492.5c-6.4,0-11.6,5.2-11.6,11.6s5.2,11.6,11.6,11.6h104.7c6.4,0,11.6-5.2,11.6-11.6
			s-5.2-11.6-11.6-11.6H331.5z"/>
		<path id="rect3692" class="st1" d="M430.4,213.3c-19.1,0-34.9,15.8-34.9,34.9c0.7,0.7,75.1,61.5,113,90.7c15.6,12,37.6,12,53.2,0
			l89.8-69.1v118.1c0,6.6-5,11.6-11.6,11.6H430.4c-6.6,0-11.6-5-11.6-11.6v-93.4c0-6.4-5.2-11.6-11.6-11.6s-11.6,5.2-11.6,11.6v93.4
			c0,19.1,15.8,34.9,34.9,34.9h209.5c19.1,0,34.9-15.8,34.9-34.9V248.2c0-19.1-15.8-34.9-34.9-34.9H430.4z M430.4,236.5h209.5
			c4.2,0,7.8,2,9.8,5.2l-102.1,78.6c-7.1,5.5-17.8,5.5-24.9,0l-102.1-78.6C422.6,238.6,426.1,236.5,430.4,236.5z"/>
	</g>
</g>
</svg>
