<svg version="1.1" id="Capa_1" xmlns="http://www.w3.org/2000/svg" xmlns:xlink="http://www.w3.org/1999/xlink" x="0px" y="0px"
	 viewBox="0 0 512 512" style="enable-background:new 0 0 512 512;" xml:space="preserve" width="72" height="72">
<style type="text/css">
	.st0{fill:#0072BB;}
	.st1{fill:#002C53;}
</style>
<g>
	<g>
		<path class="st0" d="M257,40c-5.5,0-10,4.4-10.1,9.9c0,5.5,4.4,10,9.9,10.1c5.5,0,10-4.4,10.1-9.9C266.9,44.6,262.5,40.1,257,40z"
			/>
	</g>
</g>
<g>
	<g>
		<path class="st0" d="M256.5,100c-38.6-0.3-70.2,30.9-70.5,69.5c-0.3,38.6,30.9,70.2,69.5,70.5c0.2,0,0.4,0,0.5,0
			c38.4,0,69.7-31.1,70-69.5C326.3,131.9,295.1,100.3,256.5,100z M256,220c-0.1,0-0.3,0-0.4,0c-27.6-0.2-49.8-22.8-49.6-50.4
			c0.2-27.4,22.6-49.6,50-49.6c0.1,0,0.3,0,0.4,0c27.6,0.2,49.8,22.8,49.6,50.4C305.8,197.8,283.4,220,256,220z"/>
	</g>
</g>
<g>
	<g>
		<path class="st0" d="M299.6,47.6c-5.2-1.8-10.9,0.9-12.8,6.1c-1.8,5.2,0.9,10.9,6.1,12.8c44,15.6,73.4,57.6,73.1,104.4
			c0,5.5,4.4,10,9.9,10.1c0,0,0.1,0,0.1,0c5.5,0,10-4.4,10-9.9C386.4,115.6,351.7,66,299.6,47.6z"/>
	</g>
</g>
<g>
	<g>
		<path class="st1" d="M317.4,376.4c66.5-85.6,108.1-130.3,108.6-205.2C426.7,77,350.2,0,256,0C162.8,0,86.7,75.4,86,168.7
			c-0.6,76.9,41.8,121.5,108.7,207.7C128.1,386.4,86,411.4,86,442c0,20.5,18.9,38.9,53.3,51.8C170.7,505.5,212.1,512,256,512
			s85.3-6.5,116.6-18.2c34.4-12.9,53.3-31.3,53.3-51.8C426,411.4,383.9,386.4,317.4,376.4z M106,168.9C106.6,86.6,173.8,20,256,20
			c83.2,0,150.6,68,150,151.1c-0.5,71.1-44.6,115-115,206.7c-12.6,16.4-24.1,31.8-35,46.9c-10.9-15.1-22.2-30.3-34.9-47
			C147.8,282.3,105.5,241.7,106,168.9z M256,492c-85.9,0-150-26.4-150-50c0-17.5,38.3-39.6,102.8-47.3c14.3,18.7,26.7,35.7,39,53
			c1.9,2.6,4.9,4.2,8.2,4.2c0,0,0,0,0,0c3.2,0,6.3-1.6,8.2-4.2c12.1-17.1,25-34.5,39.1-53C367.7,402.4,406,424.5,406,442
			C406,465.6,341.9,492,256,492z"/>
	</g>
</g>
</svg>
